<svg xmlns="http://www.w3.org/2000/svg" viewBox="-4 190 161 132" role="img" aria-labelledby="title desc" fill="none">
  <title>Cubecloud mark</title>
  <desc>Compact Cubecloud symbol extracted from the provided Cubecloud logo pack.</desc>
  <path d="M0 215.228C0 203.504 9.48856 194 21.1933 194H53.1514V241.174C53.1514 247.129 48.3318 251.957 42.3866 251.957H0V215.228Z" fill="#3277F6" />
  <path d="M114.377 215.228C114.377 203.504 104.888 194 93.1837 194H61.2255V231.065H114.377V215.228Z" fill="#53AFF8" />
  <path d="M152.725 249.261H102.937V262.739H152.725V249.261Z" fill="#3277F6" />
  <path d="M134.563 280.935L134.563 231.065L121.107 231.065L121.107 280.935L134.563 280.935Z" fill="#3277F6" />
  <path d="M114.377 296.772C114.377 308.496 104.888 318 93.1837 318H61.2255V280.935H114.377V296.772Z" fill="#53AFF8" />
  <path d="M0 296.772C0 308.496 9.48856 318 21.1933 318H53.1514V270.826C53.1514 264.871 48.3318 260.043 42.3866 260.043H0V296.772Z" fill="#3277F6" />
</svg>